<svg width="54" height="54" viewBox="0 0 54 54" fill="none" xmlns="http://www.w3.org/2000/svg">
<rect width="54" height="54" rx="16" fill="#E7F0FF"/>
<path fill-rule="evenodd" clip-rule="evenodd" d="M31.71 25.0722C31.71 25.5716 32.11 25.9712 32.61 25.9712C33.11 25.9712 33.52 25.5716 33.52 25.0722C33.52 24.5728 33.11 24.1632 32.61 24.1632C32.11 24.1632 31.71 24.5728 31.71 25.0722ZM29.77 31.1055C29.06 31.8147 28.08 32.2542 27 32.2542C25.95 32.2542 24.97 31.8447 24.22 31.1055C23.48 30.3563 23.07 29.3774 23.07 28.3286C23.06 27.2897 23.47 26.3108 24.21 25.5617C24.96 24.8125 25.95 24.4029 27 24.4029C28.05 24.4029 29.04 24.8125 29.78 25.5517C30.52 26.3008 30.93 27.2897 30.93 28.3286C30.92 29.4174 30.48 30.3963 29.77 31.1055ZM27 25.9013C26.35 25.9013 25.74 26.151 25.27 26.6205C24.81 27.08 24.56 27.6893 24.57 28.3186V28.3286C24.57 28.9779 24.82 29.5872 25.28 30.0467C25.74 30.5062 26.35 30.7559 27 30.7559C28.34 30.7559 29.42 29.6671 29.43 28.3286C29.43 27.6793 29.18 27.07 28.72 26.6105C28.26 26.151 27.65 25.9013 27 25.9013Z" fill="#006AFF"/>
<path opacity="0.4" d="M32.44 21.2364L32.34 21.0166C32.07 20.4473 31.76 19.788 31.57 19.4084C31.11 18.5094 30.32 18.01 29.35 18H24.64C23.67 18.01 22.89 18.5094 22.43 19.4084C22.23 19.808 21.89 20.5272 21.61 21.1165L21.55 21.2364C21.52 21.3163 21.44 21.3563 21.36 21.3563C18.95 21.3563 17 23.3141 17 25.7114V31.6448C17 34.0422 18.95 36 21.36 36H32.64C35.04 36 37 34.0422 37 31.6448V25.7114C37 23.3141 35.04 21.3563 32.64 21.3563C32.55 21.3563 32.48 21.3063 32.44 21.2364Z" fill="#006AFF"/>
</svg>
