<svg width="18" height="12" viewBox="0 0 18 12" fill="none" xmlns="http://www.w3.org/2000/svg">
<path opacity="0.4" d="M12.7975 4.80957L16.4967 4.48242C17.3269 4.48242 18 5.16206 18 6.00032C18 6.83858 17.3269 7.51822 16.4967 7.51822L12.7975 7.19107C12.1463 7.19107 11.6183 6.65793 11.6183 6.00032C11.6183 5.34161 12.1463 4.80957 12.7975 4.80957Z" fill="#006AFF" fill-opacity="0.54"/>
<path d="M0.375217 4.86984C0.433035 4.81146 0.649033 4.56471 0.851939 4.35983C2.03556 3.07656 5.12607 0.978153 6.74278 0.335965C6.98823 0.233523 7.60895 0.0154213 7.94167 0C8.25912 0 8.56239 0.0738021 8.85148 0.219203C9.21256 0.422985 9.50056 0.74463 9.65983 1.12355C9.76129 1.38572 9.92056 2.17331 9.92056 2.18763C10.0787 3.04792 10.1649 4.44685 10.1649 5.99339C10.1649 7.46503 10.0787 8.80668 9.94892 9.68129C9.93474 9.69671 9.77547 10.6738 9.60201 11.0086C9.28456 11.6211 8.66384 12 7.99949 12H7.94167C7.50859 11.9857 6.59878 11.6057 6.59878 11.5924C5.06825 10.9502 2.05083 8.95319 0.837757 7.62585C0.837757 7.62585 0.495216 7.28438 0.346854 7.07178C0.115584 6.76556 -5.05447e-05 6.38663 -5.05447e-05 6.00771C-5.05447e-05 5.58473 0.129766 5.19148 0.375217 4.86984Z" fill="#006AFF" fill-opacity="0.54"/>
</svg>
