<svg width="18" height="12" viewBox="0 0 18 12" fill="none" xmlns="http://www.w3.org/2000/svg">
<path opacity="0.4" d="M5.20248 7.19043L1.50325 7.51758C0.673083 7.51758 0 6.83794 0 5.99968C0 5.16142 0.673083 4.48178 1.50325 4.48178L5.20248 4.80893C5.85375 4.80893 6.38174 5.34207 6.38174 5.99968C6.38174 6.65839 5.85375 7.19043 5.20248 7.19043Z" fill="#006AFF" fill-opacity="0.54"/>
<path d="M17.6248 7.13016C17.567 7.18854 17.351 7.43529 17.1481 7.64017C15.9644 8.92344 12.8739 11.0218 11.2572 11.664C11.0118 11.7665 10.3911 11.9846 10.0583 12C9.74088 12 9.43761 11.9262 9.14852 11.7808C8.78744 11.577 8.49944 11.2554 8.34017 10.8764C8.23871 10.6143 8.07944 9.82669 8.07944 9.81237C7.92126 8.95208 7.83508 7.55315 7.83508 6.00661C7.83508 4.53497 7.92126 3.19332 8.05108 2.31871C8.06526 2.30329 8.22453 1.32623 8.39799 0.991371C8.71544 0.378924 9.33616 0 10.0005 0H10.0583C10.4914 0.0143194 11.4012 0.394346 11.4012 0.407564C12.9317 1.04975 15.9492 3.04681 17.1622 4.37415C17.1622 4.37415 17.5048 4.71562 17.6531 4.92822C17.8844 5.23444 18.0001 5.61337 18.0001 5.99229C18.0001 6.41527 17.8702 6.80852 17.6248 7.13016Z" fill="#006AFF" fill-opacity="0.54"/>
</svg>
