<svg width="17" height="21" viewBox="0 0 17 21" fill="none" xmlns="http://www.w3.org/2000/svg">
<path opacity="0.4" d="M15.3089 7.521C14.8574 7.521 14.2594 7.511 13.5149 7.511C11.699 7.511 10.2059 6.008 10.2059 4.175V0.959C10.2059 0.706 10.003 0.5 9.75247 0.5H4.46436C1.99604 0.5 0 2.526 0 5.009V15.784C0 18.389 2.09109 20.5 4.6703 20.5H12.5455C15.0059 20.5 17 18.487 17 16.002V7.971C17 7.717 16.798 7.512 16.5465 7.513C16.1238 7.516 15.6168 7.521 15.3089 7.521Z" fill="#006AFF"/>
<path opacity="0.4" d="M12.5842 1.06737C12.2852 0.75637 11.7632 0.97037 11.7632 1.40137V4.03837C11.7632 5.14437 12.6732 6.05437 13.7792 6.05437C14.4772 6.06237 15.4452 6.06437 16.2672 6.06237C16.6882 6.06137 16.9022 5.55837 16.6102 5.25437C15.5552 4.15737 13.6662 2.19137 12.5842 1.06737Z" fill="#006AFF"/>
<path d="M11.6052 11.2088C11.3132 10.9198 10.8432 10.9178 10.5512 11.2108L8.96224 12.8078V7.98084C8.96224 7.56984 8.62824 7.23584 8.21724 7.23584C7.80624 7.23584 7.47224 7.56984 7.47224 7.98084V12.8078L5.88224 11.2108C5.59124 10.9178 5.12024 10.9198 4.82924 11.2088C4.53724 11.4988 4.53724 11.9698 4.82624 12.2618L7.68924 15.1378H7.69024C7.75824 15.2058 7.83924 15.2608 7.93024 15.2988C8.02024 15.3358 8.11824 15.3558 8.21724 15.3558C8.31724 15.3558 8.41524 15.3358 8.50524 15.2978C8.59424 15.2608 8.67524 15.2058 8.74324 15.1388L8.74524 15.1378L11.6072 12.2618C11.8972 11.9698 11.8972 11.4988 11.6052 11.2088Z" fill="#006AFF"/>
</svg>
