<svg width="20" height="20" viewBox="0 0 20 20" fill="none" xmlns="http://www.w3.org/2000/svg">
<g id="Iconly/Bulk/Folder">
<g id="Folder">
<path id="Folder 2" d="M14.0704 4.26245H11.6178C11.0068 4.26649 10.4267 3.99471 10.0396 3.523L9.23192 2.40643C8.85122 1.93059 8.27116 1.65754 7.66109 1.66699H5.92725C2.81524 1.66699 1.66676 3.49343 1.66676 6.59911V9.95621C1.66288 10.3254 18.3298 10.3249 18.3309 9.95621V8.98014C18.3457 5.87445 17.2268 4.26245 14.0704 4.26245Z" fill="#006AFF" fill-opacity="0.4"/>
<path id="Folder_2" fill-rule="evenodd" clip-rule="evenodd" d="M17.3602 5.45299C17.6268 5.76472 17.8328 6.12331 17.9678 6.5104C18.2333 7.30597 18.3562 8.14201 18.3308 8.98016V13.3577C18.3298 13.7264 18.3025 14.0946 18.2493 14.4595C18.148 15.1034 17.9215 15.7214 17.5825 16.2785C17.4267 16.5476 17.2375 16.7961 17.0194 17.018C16.032 17.9241 14.7209 18.3958 13.3813 18.3268H6.60893C5.26716 18.3953 3.95393 17.9238 2.96342 17.018C2.74792 16.7957 2.56122 16.5472 2.40771 16.2785C2.07071 15.7218 1.84899 15.1032 1.75566 14.4595C1.69632 14.0952 1.66659 13.7268 1.66675 13.3577V8.98016C1.6666 8.61456 1.68639 8.24923 1.72603 7.88577C1.73436 7.82201 1.74686 7.75928 1.75923 7.6972C1.77986 7.59371 1.80012 7.49203 1.80012 7.39034C1.87534 6.95174 2.01255 6.52601 2.20765 6.12589C2.78559 4.89101 3.97112 4.26247 5.91243 4.26247H14.0629C15.1503 4.17838 16.2295 4.50571 17.086 5.17939C17.1847 5.26304 17.2764 5.35454 17.3602 5.45299ZM5.80884 12.951H14.1965H14.2113C14.3953 12.959 14.5749 12.8931 14.7099 12.7681C14.845 12.643 14.9242 12.4692 14.93 12.2855C14.9404 12.124 14.8872 11.9648 14.7818 11.8418C14.6605 11.6766 14.4684 11.5779 14.2631 11.5756H5.80884C5.42826 11.5756 5.11975 11.8835 5.11975 12.2633C5.11975 12.6431 5.42826 12.951 5.80884 12.951Z" fill="#006AFF"/>
</g>
</g>
</svg>
