<svg width="20" height="20" viewBox="0 0 20 20" fill="none" xmlns="http://www.w3.org/2000/svg">
<g id="Iconly/Bulk/Wallet" opacity="0.72">
<g id="Wallet">
<path id="Fill 1" fill-rule="evenodd" clip-rule="evenodd" d="M18.3305 6.97927H14.8016C13.1593 6.98216 11.829 8.27929 11.826 9.88047C11.8238 11.4853 13.1556 12.7882 14.8016 12.7903H18.3334V13.0453C18.3334 15.8446 16.6364 17.5 13.7645 17.5H6.23638C3.36379 17.5 1.66675 15.8446 1.66675 13.0453V6.94822C1.66675 4.14885 3.36379 2.5 6.23638 2.5H13.7616C16.6334 2.5 18.3305 4.14885 18.3305 6.94822V6.97927ZM5.61625 6.97277H10.3163H10.3192H10.3251C10.677 6.97133 10.9614 6.69182 10.96 6.34804C10.9585 6.00498 10.6711 5.72765 10.3192 5.72909H5.61625C5.26662 5.73054 4.98292 6.00715 4.98144 6.34876C4.97996 6.69182 5.2644 6.97133 5.61625 6.97277Z" fill="#111111" fill-opacity="0.54"/>
<path id="Fill 4" opacity="0.4" d="M13.3647 10.2472C13.5389 11.0399 14.2339 11.5976 15.0273 11.5831H17.7356C18.0657 11.5831 18.3335 11.3097 18.3335 10.9717V8.86208C18.3328 8.52485 18.0657 8.25073 17.7356 8.25H14.9636C14.061 8.2529 13.3321 9.00204 13.3335 9.92523C13.3335 10.0333 13.3441 10.1413 13.3647 10.2472Z" fill="#111111" fill-opacity="0.54"/>
<ellipse id="Oval" cx="15.0001" cy="9.91658" rx="0.833334" ry="0.833333" fill="#111111" fill-opacity="0.54"/>
</g>
</g>
</svg>
