<svg width="26" height="26" viewBox="0 0 26 26" fill="none" xmlns="http://www.w3.org/2000/svg">
<path opacity="0.12" d="M25.5002 12.9998C25.5002 19.8935 19.8927 25.4998 13.0002 25.4998C6.10774 25.4998 0.500244 19.8935 0.500244 12.9998C0.500244 6.10726 6.10774 0.499756 13.0002 0.499756C19.8927 0.499756 25.5002 6.10726 25.5002 12.9998Z" fill="#006AFF"/>
<path d="M18.2761 11.1967C18.2761 11.4355 18.1848 11.6755 18.0023 11.858L13.6648 16.2167C13.4886 16.393 13.2498 16.4917 12.9998 16.4917C12.7511 16.4917 12.5123 16.393 12.3361 16.2167L7.99609 11.858C7.63109 11.4917 7.63109 10.8992 7.99859 10.533C8.36609 10.168 8.95984 10.1692 9.32484 10.5355L12.9998 14.2267L16.6748 10.5355C17.0398 10.1692 17.6323 10.168 17.9998 10.533C18.1848 10.7155 18.2761 10.9567 18.2761 11.1967Z" fill="#006AFF"/>
</svg>
