<svg width="30" height="30" viewBox="0 0 30 30" fill="none" xmlns="http://www.w3.org/2000/svg">
<path d="M28.3515 15.0041C28.3593 14.288 27.969 13.6299 27.3385 13.2828L12.6484 5.1788C11.9897 4.80622 11.2155 4.84942 10.5985 5.26947C9.9695 5.6973 9.64934 6.72013 9.82784 7.45963L11.2155 13.1993C11.3571 13.7886 11.8848 14.2044 12.4905 14.2037L20.6519 14.2037C21.0705 14.1959 21.4105 14.5359 21.4027 14.9545C21.4034 15.3646 21.0698 15.6983 20.6519 15.7053L12.4834 15.6983C11.877 15.6983 11.35 16.1119 11.207 16.7013L9.8073 22.4558C9.638 23.1351 9.83563 23.8158 10.3173 24.2974C10.374 24.3541 10.4377 24.4178 10.5022 24.4667C11.1248 24.9491 11.9401 25.0121 12.6343 24.6438L27.3244 16.7112C27.9548 16.3783 28.3444 15.7195 28.3515 15.0041Z" fill="#006AFF" fill-opacity="0.54"/>
<path opacity="0.4" fill-rule="evenodd" clip-rule="evenodd" d="M5.22693 12.038C5.09093 11.902 5.00664 11.7143 5.00735 11.5067C5.00735 11.0917 5.3431 10.7559 5.75818 10.7559L7.69264 10.7552C8.10702 10.7559 8.44348 11.0924 8.44418 11.5067C8.44348 11.9211 8.10702 12.2576 7.69264 12.2583L5.75818 12.2576C5.55064 12.2583 5.36293 12.174 5.22693 12.038ZM7.0465 15.5468C6.9105 15.4108 6.82621 15.2231 6.82692 15.0155C6.82692 14.6005 7.16267 14.2647 7.57775 14.2647L9.51221 14.264C9.92658 14.2647 10.263 14.6012 10.2637 15.0155C10.263 15.4299 9.92658 15.7664 9.51221 15.7671L7.57775 15.7664C7.37021 15.7671 7.1825 15.6828 7.0465 15.5468ZM4.69887 18.2538C4.69816 18.4614 4.78245 18.6491 4.91845 18.7851C5.05445 18.9211 5.24216 19.0054 5.4497 19.0047L7.38416 19.0054C7.79854 19.0047 8.13499 18.6682 8.1357 18.2538C8.135 17.8394 7.79854 17.503 7.38416 17.5023L5.4497 17.503C5.03462 17.503 4.69887 17.8387 4.69887 18.2538Z" fill="#006AFF" fill-opacity="0.54"/>
</svg>
