<svg width="24" height="24" viewBox="0 0 24 24" fill="none" xmlns="http://www.w3.org/2000/svg">
<path d="M13.576 17.2711L8.46599 14.4841C7.97548 14.971 7.3518 15.3018 6.67358 15.4347C5.99535 15.5677 5.29295 15.4969 4.65491 15.2312C4.01688 14.9655 3.47178 14.5169 3.08834 13.9419C2.70489 13.3669 2.50027 12.6912 2.50027 12.0001C2.50027 11.309 2.70489 10.6333 3.08834 10.0583C3.47178 9.48329 4.01688 9.03468 4.65491 8.76901C5.29295 8.50335 5.99535 8.43253 6.67358 8.56548C7.3518 8.69844 7.97548 9.02921 8.46599 9.51611L13.576 6.72911C13.4007 5.90685 13.5273 5.04897 13.9326 4.31236C14.3378 3.57576 14.9947 3.00964 15.7831 2.71754C16.5714 2.42545 17.4386 2.42688 18.226 2.7216C19.0134 3.01631 19.6684 3.5846 20.0712 4.32255C20.474 5.0605 20.5978 5.91879 20.4198 6.74046C20.2418 7.56214 19.774 8.2923 19.1019 8.79741C18.4298 9.30252 17.5984 9.54884 16.7596 9.49131C15.9208 9.43378 15.1308 9.07625 14.534 8.48411L9.42399 11.2711C9.52592 11.7518 9.52592 12.2485 9.42399 12.7291L14.534 15.5161C15.1308 14.924 15.9208 14.5664 16.7596 14.5089C17.5984 14.4514 18.4298 14.6977 19.1019 15.2028C19.774 15.7079 20.2418 16.4381 20.4198 17.2598C20.5978 18.0814 20.474 18.9397 20.0712 19.6777C19.6684 20.4156 19.0134 20.9839 18.226 21.2786C17.4386 21.5733 16.5714 21.5748 15.7831 21.2827C14.9947 20.9906 14.3378 20.4245 13.9326 19.6879C13.5273 18.9513 13.4007 18.0934 13.576 17.2711Z" fill="#006AFF"/>
</svg>
